<?xml version="1.0" standalone="no"?>
<!DOCTYPE svg PUBLIC "-//W3C//DTD SVG 20010904//EN"
 "http://www.w3.org/TR/2001/REC-SVG-20010904/DTD/svg10.dtd">
<svg version="1.0" xmlns="http://www.w3.org/2000/svg"
 width="900.000000pt" height="507.000000pt" viewBox="0 0 900.000000 507.000000"
 preserveAspectRatio="xMidYMid meet">
<metadata>
Created by potrace 1.10, written by Peter Selinger 2001-2011
</metadata>
<g transform="translate(0.000000,507.000000) scale(0.100000,-0.100000)"
fill="#203466" stroke="none">
<path d="M1977 3844 c-3 -4 -43 -10 -88 -15 -45 -4 -87 -13 -92 -18 -6 -6 -19
-11 -29 -11 -17 0 -58 -16 -128 -49 -71 -33 -200 -138 -248 -202 -109 -142
-172 -304 -172 -442 0 -46 -5 -88 -10 -93 -7 -7 -9 -273 -8 -780 l3 -769 260
0 260 0 5 805 c6 852 3 807 52 915 17 40 91 118 138 147 14 8 43 19 65 23 52
10 210 10 255 0 38 -8 123 -61 157 -97 23 -24 67 -108 86 -161 8 -22 13 -281
17 -832 l5 -800 255 0 255 0 3 810 c2 720 1 818 -14 885 -32 145 -65 235 -110
297 -13 17 -24 36 -24 40 0 20 -95 122 -165 177 -48 38 -67 49 -125 76 -25 12
-54 26 -65 32 -21 12 -50 20 -145 38 -30 6 -74 15 -98 21 -47 10 -285 13 -295
3z"/>
<path d="M5175 3840 c-22 -5 -65 -13 -95 -19 -98 -20 -124 -28 -180 -56 -30
-14 -71 -34 -90 -44 -159 -78 -337 -273 -424 -466 -10 -22 -25 -53 -32 -68 -8
-16 -14 -38 -14 -48 0 -11 -5 -30 -12 -42 -38 -70 -66 -392 -50 -581 13 -158
48 -329 80 -392 9 -18 32 -71 46 -104 4 -8 12 -24 19 -35 135 -221 311 -377
507 -450 25 -9 52 -21 61 -25 9 -5 38 -12 65 -15 27 -4 55 -12 63 -19 19 -15
327 -20 421 -7 108 15 173 30 184 41 6 6 18 10 28 10 17 0 55 15 136 54 132
64 136 69 100 118 -28 39 -44 66 -57 95 -5 11 -15 24 -20 28 -6 3 -11 14 -11
24 0 10 -7 24 -15 31 -8 7 -15 23 -15 35 0 12 -6 28 -14 34 -7 6 -16 24 -20
39 -3 15 -13 36 -21 47 -16 20 -16 20 -58 -1 -74 -37 -117 -54 -135 -54 -9 0
-30 -7 -47 -16 -23 -12 -63 -16 -180 -17 -132 0 -157 2 -210 22 -84 31 -162
86 -212 151 -24 30 -48 60 -53 67 -6 7 -10 19 -10 26 0 8 -7 20 -15 27 -8 7
-15 20 -15 29 0 9 -6 28 -14 43 -8 14 -17 46 -21 70 -4 24 -12 49 -19 57 -7
10 -11 84 -11 231 0 147 4 221 11 231 7 8 15 34 19 59 9 59 88 218 134 268 59
64 162 132 201 132 9 0 22 6 28 13 18 17 292 16 352 -2 91 -27 183 -66 212
-89 9 -8 21 -11 26 -8 6 3 24 41 42 84 38 95 66 150 121 242 23 39 40 72 38
74 -10 9 -219 106 -228 106 -6 0 -25 6 -43 14 -68 28 -105 38 -173 47 -98 14
-332 19 -380 9z"/>
<path d="M6985 3840 c-11 -5 -36 -9 -55 -10 -43 -1 -180 -36 -194 -50 -6 -6
-15 -10 -22 -10 -15 0 -90 -35 -129 -60 -16 -11 -39 -24 -50 -29 -73 -34 -268
-246 -305 -332 -5 -13 -14 -31 -19 -39 -24 -38 -71 -149 -71 -166 0 -11 -4
-24 -10 -30 -12 -12 -38 -135 -52 -244 -15 -127 -5 -485 16 -534 9 -21 16 -53
16 -70 0 -18 7 -41 15 -52 8 -10 15 -27 15 -36 0 -28 58 -157 105 -234 77
-129 203 -255 340 -341 44 -27 166 -83 183 -83 10 0 22 -4 28 -10 10 -10 66
-23 169 -40 74 -12 266 -12 360 0 165 21 213 36 388 120 84 40 111 64 91 79
-32 22 -153 247 -168 311 -3 14 -13 34 -21 44 -14 18 -16 18 -87 -14 -139 -62
-190 -73 -343 -73 -146 -1 -180 6 -285 59 -51 26 -173 152 -197 204 -77 172
-91 253 -87 516 2 128 6 181 18 209 9 20 16 46 16 55 0 10 6 31 14 47 7 15 22
46 32 68 59 127 171 222 318 269 65 21 264 21 321 1 22 -8 50 -15 62 -15 12 0
24 -4 28 -9 3 -5 19 -13 37 -16 17 -4 53 -21 80 -37 26 -16 52 -27 57 -24 5 4
17 28 26 54 28 78 53 131 102 217 12 22 27 50 32 62 5 11 15 24 20 28 6 3 11
14 11 24 0 17 -79 62 -185 106 -16 7 -47 20 -68 29 -21 9 -47 16 -58 16 -11 0
-30 5 -42 12 -47 25 -409 48 -452 28z"/>
<path d="M3987 3820 c-37 -4 -73 -12 -79 -18 -7 -7 -25 -12 -41 -12 -16 0 -41
-6 -55 -14 -15 -8 -34 -17 -42 -20 -8 -4 -28 -15 -45 -26 -16 -11 -40 -24 -52
-30 -20 -8 -118 -101 -147 -140 -28 -36 -46 -71 -46 -89 0 -10 -7 -21 -15 -25
-10 -3 -15 -19 -15 -42 0 -21 -6 -45 -14 -53 -15 -18 -30 -151 -16 -151 5 0
12 9 15 20 3 11 11 20 16 20 5 0 9 6 9 13 0 30 187 183 248 201 12 4 22 12 22
17 0 5 11 9 24 9 13 0 29 7 36 15 7 8 28 15 47 15 19 0 43 5 54 11 16 8 124
18 206 19 7 0 15 11 19 24 3 14 12 27 20 30 8 3 14 10 14 17 0 6 14 28 30 49
17 21 30 42 30 47 0 5 18 27 41 48 77 75 77 75 -68 74 -70 -1 -159 -5 -196 -9z"/>
<path d="M3810 3273 c-103 -44 -161 -78 -214 -124 -58 -49 -126 -133 -126
-154 0 -6 -5 -16 -12 -23 -11 -11 -23 -40 -56 -137 -15 -45 -17 -115 -17 -710
l0 -660 260 0 260 0 6 710 c3 490 9 719 16 740 7 17 15 60 18 97 4 37 10 70
15 73 5 3 12 27 16 53 4 26 13 56 20 67 8 11 14 34 14 52 l0 33 -82 -1 c-51 0
-97 -6 -118 -16z"/>
</g>
</svg>
